<?xml version="1.0" encoding="UTF-8"?>
<svg xmlns="http://www.w3.org/2000/svg" clip-rule="evenodd" fill-rule="evenodd" stroke-linejoin="round" stroke-miterlimit="2" viewBox="0 0 600 335">
  <g transform="translate(132 -108)">
    <path d="m621 197.472c0-23.993-19.479-43.472-43.472-43.472h-513.056c-23.993 0-43.472 19.479-43.472 43.472v247.456c0 23.993 19.479 43.472 43.472 43.472h513.056c23.993 0 43.472-19.479 43.472-43.472z" fill="#fff" transform="translate(-153 -46)"></path>
    <g fill-rule="nonzero">
      <path d="m426.6 108h-517.2c-22.8 0-41.4 18.6-41.4 41.4v251.6c0 22.8 18.6 41.4 41.4 41.4h517.2c22.8 0 41.4-18.6 41.4-41.4v-251.6c0-22.8-18.6-41.4-41.4-41.4m0 3.7c20.8 0 37.8 17 37.8 37.8v251.6c0 20.8-17 37.8-37.8 37.8h-517.2c-20.8 0-37.8-17-37.8-37.8v-251.7c0-20.8 17-37.8 37.8-37.8h517.2"></path>
      <path d="m-104.5 232c-.6-2.2.6-3.7 2.8-3.7h10.4c1.2 0 2.5 1.1 2.8 2.2l18.9 71.5h.6l25.4-73.6c.3-.9 1.4-1.7 2.6-1.7h2.8c1.2 0 2.3.8 2.6 1.7l25.8 73.6h.6l18.5-71.5c.3-1.1 1.6-2.2 2.8-2.2h10.4c2.2 0 3.4 1.6 2.8 3.7l-29.3 104.8c-.3 1.3-1.6 2.2-2.8 2.2h-2.5c-1.1 0-2.3-.8-2.6-1.7l-27.4-77.5h-.8l-27 77.5c-.3.9-1.6 1.7-2.6 1.7h-2.5c-1.2 0-2.5-.9-2.8-2.2z"></path>
      <path d="m81.9 275.7c10 0 16.1-7.3 16.1-16.7 0-9.5-6.1-16.1-16.1-16.1h-21v32.7h21zm2.5 47.3c9.5 0 16.8-7.3 16.8-17 0-9.5-9-16.4-19.2-16.4h-21.3v33.4zm-39.4-91.8c0-1.6 1.2-3 3-3h34.9c18.9 0 32.4 12.5 32.4 28.8 0 12-8.9 20.6-16.2 24.8 8.3 3.4 19.5 11.1 19.5 25.4 0 17.5-14.3 30.1-34 30.1h-36.7c-1.7 0-3-1.4-3-3v-103.1z"></path>
      <path d="m141.6 231.2c0-1.6 1.2-3 3-3h62.4c1.7 0 3 1.4 3 3v8.7c0 1.5-1.3 3-3 3h-49.3v31.8h41.6c1.6 0 3 1.4 3 3v8.7c0 1.7-1.4 3-3 3h-41.6v33.5h49.3c1.7 0 3 1.4 3 3v8.6c0 1.6-1.3 3-3 3h-62.4c-1.7 0-3-1.4-3-3z"></path>
      <path d="m233.1 229.5c0-1.6 1.4-2.8 3-2.8h3.9l67.6 78.3h.2v-73.7c0-1.5 1.3-3 3-3h10c1.6 0 3 1.4 3 3v104.9c0 1.5-1.4 2.8-3 2.8h-4.1l-67.7-80.5h-.2v75.9c0 1.6-1.2 3-3 3h-9.8c-1.6 0-3-1.4-3-3v-104.9z"></path>
      <path d="m401.9 226.7c15.7 0 27.1 5.3 37.7 14.5 1.4 1.3 1.4 3.1.2 4.4l-6.9 7c-1.1 1.4-2.5 1.4-3.9 0-7.3-6.4-17.3-10.4-27-10.4-22.3 0-39.1 18.7-39.1 40.5s17 40.4 39.3 40.4c11.4 0 19.3-4.5 26.8-10.3 1.4-1.1 2.8-.9 3.7-.1l7.2 7c1.2 1.1.9 3.1-.2 4.2-10.6 10.3-24 15.1-37.9 15.1-31.2 0-56.3-24.8-56.3-56 .1-31.2 25.2-56.3 56.4-56.3"></path>
      <path d="m59.2 199c-1.8 2.2-3.9 3.8-6.2 4.8s-4.8 1.6-7.4 1.6c-2.8 0-5.4-.5-7.8-1.4-2.4-1-4.4-2.3-6.2-4-1.7-1.7-3-3.8-4-6.2s-1.4-5-1.4-7.8.5-5.4 1.4-7.8c1-2.4 2.3-4.4 4-6.2 1.7-1.7 3.8-3.1 6.2-4.1 2.4-.9 5-1.4 7.8-1.4 2.7 0 5.2.6 7.6 1.7 2.3 1.1 4.4 2.7 6.2 4.7l-3.8 2.9c-1.4-1.5-2.9-2.8-4.6-3.6-1.6-.9-3.4-1.3-5.4-1.3-2.2 0-4.3.4-6.1 1.2s-3.4 1.9-4.6 3.2c-1.3 1.4-2.3 3-2.9 4.8-.7 1.8-1 3.8-1 5.9s.3 4 1 5.9c.7 1.8 1.6 3.4 2.9 4.8s2.8 2.4 4.6 3.2 3.8 1.2 6.1 1.2c2 0 3.9-.5 5.6-1.4s3.1-2.2 4.4-3.7z"></path>
      <path d="m95.7 182.9c0-1.6-.3-3.2-1-4.6s-1.6-2.7-2.7-3.8c-1.2-1.1-2.5-2-4.1-2.6s-3.2-1-5-1c-2.6 0-4.8.5-6.5 1.6s-3.1 2.3-4.1 3.7-1.7 2.7-2.2 4c-.4 1.3-.6 2.2-.6 2.7zm3.7 14.6c-1.9 2.8-4.2 4.9-6.9 6.1s-5.8 1.8-9.1 1.8c-2.8 0-5.4-.5-7.7-1.4-2.3-1-4.3-2.3-5.9-4s-2.9-3.8-3.8-6.2-1.3-5-1.3-7.9c0-2.8.5-5.3 1.4-7.7s2.2-4.4 3.8-6.1 3.6-3.1 5.8-4.1 4.7-1.5 7.4-1.5c2.8 0 5.3.5 7.5 1.5s4 2.3 5.4 3.9c1.5 1.6 2.6 3.5 3.3 5.6s1.1 4.2 1.1 6.3v3.4h-31c0 1 .2 2.3.6 3.9s1.1 3.1 2.2 4.6 2.5 2.8 4.3 3.8c1.8 1.1 4.1 1.6 6.9 1.6 2.5 0 4.8-.6 7.1-1.8s4.1-2.8 5.3-4.8z"></path>
      <path d="m111.3 177.9c0-.7 0-1.5-.1-2.5s-.1-2-.1-3-.1-2-.1-2.8c-.1-.9-.1-1.6-.1-2h4.8c.1 1.4.1 2.7.1 4s.1 2.1.2 2.5c1.2-2.2 2.8-4 4.7-5.4s4.3-2.1 7-2.1c.5 0 .9 0 1.4.1.4.1.9.2 1.4.3l-.6 4.7c-.7-.2-1.3-.3-1.8-.3-2.1 0-3.9.3-5.4 1s-2.8 1.6-3.8 2.8-1.7 2.6-2.2 4.1c-.5 1.6-.7 3.3-.7 5.1v20.2h-4.8v-26.7z"></path>
      <path d="m156.3 171.8h-10.8v24.1c0 1.6.5 2.9 1.4 3.8s2.2 1.4 3.8 1.4c.9 0 1.8-.1 2.8-.4.9-.2 1.8-.5 2.7-.9l.4 4.3c-.9.3-2 .6-3.1.9-1.2.3-2.2.4-3.1.4-1.7 0-3.2-.2-4.4-.8-1.2-.5-2.2-1.2-3-2-.7-.9-1.3-1.8-1.6-3-.4-1.2-.5-2.4-.5-3.7v-24.1h-8v-4.3h8v-10.6h4.8v10.6h10.6z"></path>
      <path d="m165.6 167.5h4.8v37h-4.8zm-1.2-14.6c0-1 .3-1.9 1-2.6s1.5-1 2.6-1c1 0 1.9.4 2.6 1s1 1.6 1 2.6-.3 1.9-1 2.6-1.5 1-2.6 1c-1 0-1.9-.4-2.6-1-.6-.8-1-1.6-1-2.6"></path>
      <path d="m186.8 171.8h-7.7v-4.3h7.7v-12.1c0-2.4.4-4.4 1.1-6s1.6-2.8 2.7-3.8 2.3-1.6 3.6-2 2.6-.6 3.7-.6c2.2 0 4.1.3 5.5 1l-1 4.2c-1.1-.5-2.5-.8-4.3-.8-4.3 0-6.5 3.3-6.5 9.8v10.3h8.6v4.3h-8.6v32.6h-4.8z"></path>
      <path d="m208.7 167.5h4.8v37h-4.8zm-1.2-14.6c0-1 .3-1.9 1-2.6s1.5-1 2.6-1c1 0 1.9.4 2.6 1 .7.7 1 1.6 1 2.6s-.3 1.9-1 2.6-1.6 1-2.6 1-1.9-.4-2.6-1c-.7-.8-1-1.6-1-2.6"></path>
      <path d="m256.1 182.9c0-1.6-.3-3.2-1-4.6s-1.6-2.7-2.7-3.8-2.5-2-4.1-2.6-3.3-1-5-1c-2.6 0-4.8.5-6.5 1.6s-3.1 2.3-4.1 3.7-1.7 2.7-2.2 4c-.4 1.3-.6 2.2-.6 2.7zm3.7 14.6c-1.9 2.8-4.2 4.9-6.9 6.1s-5.8 1.8-9.1 1.8c-2.8 0-5.4-.5-7.7-1.4-2.3-1-4.3-2.3-5.9-4-1.7-1.7-2.9-3.8-3.8-6.2s-1.3-5-1.3-7.9c0-2.8.5-5.3 1.4-7.7s2.2-4.4 3.8-6.1 3.6-3.1 5.8-4.1 4.7-1.5 7.4-1.5c2.8 0 5.3.5 7.5 1.5s4 2.3 5.4 3.9c1.5 1.6 2.6 3.5 3.3 5.6s1.1 4.2 1.1 6.3v3.4h-31c0 1 .2 2.3.6 3.9s1.1 3.1 2.2 4.6 2.5 2.8 4.3 3.8 4.1 1.6 6.9 1.6c2.5 0 4.8-.6 7.1-1.8s4.1-2.8 5.3-4.8z"></path>
      <path d="m304.5 186c0-2.1-.4-4-1.2-5.9-.8-1.8-1.9-3.4-3.3-4.8s-3-2.4-4.9-3.2-3.9-1.2-6.1-1.2-4.3.4-6.1 1.2-3.4 1.9-4.6 3.2c-1.3 1.4-2.3 3-2.9 4.8-.7 1.8-1 3.8-1 5.9s.3 4 1 5.9c.7 1.8 1.6 3.4 2.9 4.8s2.8 2.4 4.6 3.2 3.8 1.2 6.1 1.2c2.2 0 4.2-.4 6.1-1.2s3.5-1.9 4.9-3.2c1.4-1.4 2.5-3 3.3-4.8.8-1.9 1.2-3.8 1.2-5.9m-.5 12h-.2c-.7 1.3-1.7 2.4-2.8 3.3s-2.3 1.7-3.6 2.3-2.7 1.1-4.1 1.4-2.9.4-4.2.4c-2.8 0-5.4-.5-7.8-1.4-2.4-1-4.4-2.3-6.2-4-1.7-1.7-3-3.8-4-6.2s-1.4-5-1.4-7.8.5-5.4 1.4-7.8c1-2.4 2.3-4.4 4-6.2 1.7-1.7 3.8-3.1 6.2-4.1 2.4-.9 5-1.4 7.8-1.4 1.4 0 2.8.1 4.2.4s2.8.7 4.1 1.4c1.3.6 2.5 1.4 3.6 2.3s2.1 2 2.8 3.3h.2v-30h4.8v60.5h-4.8z"></path>
      <path d="m-91.7 365.7c-.1-.5.1-.8.6-.8h1.4c.3 0 .5.2.6.5l4.6 17.3h.1l5.6-17.7c.1-.2.3-.4.6-.4h.6c.3 0 .5.2.6.4l5.7 17.7h.1l4.5-17.3c.1-.2.3-.5.6-.5h1.4c.5 0 .7.3.6.8l-6.3 22.4c-.1.3-.3.5-.6.5h-.5c-.2 0-.5-.2-.6-.4l-5.8-18.1h-.1l-5.7 18.1c-.1.2-.3.4-.6.4h-.5c-.3 0-.5-.2-.6-.5z"></path>
      <path d="m-48.6 386.3c5.3 0 9.7-4.3 9.7-9.6s-4.4-9.7-9.7-9.7-9.7 4.4-9.7 9.7c.1 5.2 4.4 9.6 9.7 9.6m0-21.7c6.7 0 12 5.4 12 12.1s-5.3 12-12 12-12-5.3-12-12c0-6.8 5.3-12.1 12-12.1"></path>
      <path d="m-28.1 365c.1-.3.3-.5.6-.5h.5c.2 0 .5.2.6.4l6.6 18.4h.2l6.5-18.4c.1-.2.3-.4.6-.4h.5c.3 0 .5.2.6.5l4.3 22.4c.1.5-.1.8-.6.8h-1.3c-.3 0-.5-.2-.6-.5l-3-17.2h-.1l-6.1 17.6c-.1.2-.4.4-.6.4h-.6c-.2 0-.5-.2-.6-.4l-6.2-17.6h-.2l-2.9 17.2c0 .2-.3.5-.6.5h-1.3c-.5 0-.7-.3-.6-.8z"></path>
      <path d="m-1.3 365.5c0-.3.3-.6.6-.6h13.2c.4 0 .6.3.6.6v1c0 .3-.3.6-.6.6h-11.3v8.2h9.6c.3 0 .6.3.6.6v1c0 .4-.3.6-.6.6h-9.6v8.5h11.2c.4 0 .6.3.6.6v1c0 .3-.3.6-.6.6h-13.1c-.4 0-.6-.3-.6-.6z"></path>
      <path d="m19.1 365.2c0-.3.3-.6.6-.6h.8l15.1 18.8h.1v-17.8c0-.3.3-.6.6-.6h1.2c.3 0 .6.3.6.6v22.4c0 .3-.3.6-.6.6h-.6l-15.3-19.1v18.2c0 .3-.3.6-.6.6h-1.2c-.3 0-.6-.3-.6-.6v-22.5z"></path>
      <path d="m43.6 373.3c-.2-.2-.1-.5.2-.8s2.1-1.8 2.1-4.2h-.4c-1 0-1.9-.9-1.9-1.9 0-1.1.9-1.9 1.9-1.9 1.1 0 2.2.6 2.2 3 0 2.8-1.7 5.2-2.8 6.2-.3.3-.6.3-.8.1z"></path>
      <path d="m51.3 384.8c.2-.2.3-.4.5-.6.3-.4.7-.7 1.2-.3.2.2 2.7 2.5 5.6 2.5 2.7 0 4.5-1.7 4.5-3.7 0-2.3-2-3.7-5.8-5.3-3.7-1.6-5.9-3.1-5.9-6.9 0-2.3 1.8-6 7.1-6 3.3 0 5.7 1.7 5.7 1.7.2.1.6.5.2 1.1-.1.2-.3.4-.4.6-.3.5-.6.6-1.2.3-.2-.1-2.3-1.5-4.4-1.5-3.5 0-4.6 2.3-4.6 3.7 0 2.2 1.7 3.5 4.5 4.7 4.5 1.8 7.4 3.5 7.4 7.4 0 3.5-3.3 6-7.2 6s-6.6-2.3-7-2.7c-.2-.1-.6-.4-.2-1"></path>
      <path d="m87.3 375.4c2.6 0 4-1.8 4-4.2s-1.4-4-4-4h-5.4v8.2zm.6 10.6c2.4 0 4.2-1.8 4.2-4.2s-2.2-4.1-4.8-4.1h-5.5v8.4h6.1zm-8.5-20.5c0-.3.3-.6.6-.6h7.3c4.1 0 6.8 2.6 6.8 6.1 0 2.6-1.7 4.4-3.3 5.3 1.8.7 4 2.4 4 5.4 0 3.7-3 6.4-7.3 6.4h-7.5c-.4 0-.6-.3-.6-.6z"></path>
      <path d="m100.6 365.5c0-.3.3-.6.6-.6h1.3c.4 0 .6.3.6.6v13.9c0 3.8 2.4 6.8 6.3 6.8s6.3-2.9 6.3-6.7v-14c0-.3.3-.6.6-.6h1.3c.3 0 .6.3.6.6v14.1c0 5.1-3.6 9-8.9 9-5.2 0-8.8-3.9-8.8-9v-14.1z"></path>
      <path d="m124 384.8c.2-.2.3-.4.5-.6.3-.4.7-.7 1.2-.3.2.2 2.7 2.5 5.6 2.5 2.7 0 4.5-1.7 4.5-3.7 0-2.3-2-3.7-5.8-5.3-3.7-1.6-5.9-3.1-5.9-6.9 0-2.3 1.8-6 7.1-6 3.3 0 5.7 1.7 5.7 1.7.2.1.6.5.2 1.1-.1.2-.3.4-.4.6-.3.5-.6.6-1.2.3-.2-.1-2.3-1.5-4.4-1.5-3.5 0-4.6 2.3-4.6 3.7 0 2.2 1.7 3.5 4.5 4.7 4.5 1.8 7.4 3.5 7.4 7.4 0 3.5-3.3 6-7.2 6s-6.6-2.3-7-2.7c-.3-.1-.6-.4-.2-1"></path>
      <path d="m144 365.5c0-.3.3-.6.6-.6h1.3c.3 0 .6.3.6.6v22.1c0 .3-.3.6-.6.6h-1.3c-.3 0-.6-.3-.6-.6z"></path>
      <path d="m154.1 365.2c0-.3.3-.6.6-.6h.8l15.1 18.8h.1v-17.8c0-.3.3-.6.6-.6h1.2c.3 0 .6.3.6.6v22.4c0 .3-.3.6-.6.6h-.6l-15.3-19.1v18.2c0 .3-.3.6-.6.6h-1.2c-.3 0-.6-.3-.6-.6v-22.5z"></path>
      <path d="m180.6 365.5c0-.3.3-.6.6-.6h13.2c.4 0 .6.3.6.6v1c0 .3-.3.6-.6.6h-11.2v8.2h9.6c.3 0 .6.3.6.6v1c0 .4-.3.6-.6.6h-9.6v8.5h11.2c.4 0 .6.3.6.6v1c0 .3-.3.6-.6.6h-13.2c-.4 0-.6-.3-.6-.6z"></path>
      <path d="m199.5 384.8c.2-.2.3-.4.5-.6.3-.4.7-.7 1.2-.3.2.2 2.7 2.5 5.6 2.5 2.7 0 4.5-1.7 4.5-3.7 0-2.3-2-3.7-5.8-5.3-3.7-1.6-5.9-3.1-5.9-6.9 0-2.3 1.8-6 7.1-6 3.3 0 5.7 1.7 5.7 1.7.2.1.6.5.2 1.1-.1.2-.3.4-.4.6-.3.5-.6.6-1.2.3-.2-.1-2.3-1.5-4.4-1.5-3.5 0-4.6 2.3-4.6 3.7 0 2.2 1.7 3.5 4.5 4.7 4.5 1.8 7.4 3.5 7.4 7.4 0 3.5-3.3 6-7.2 6s-6.6-2.3-7-2.7c-.3-.1-.6-.4-.2-1"></path>
      <path d="m218 384.8c.2-.2.3-.4.5-.6.3-.4.7-.7 1.2-.3.2.2 2.7 2.5 5.6 2.5 2.7 0 4.5-1.7 4.5-3.7 0-2.3-2-3.7-5.8-5.3-3.7-1.6-5.9-3.1-5.9-6.9 0-2.3 1.8-6 7.1-6 3.3 0 5.7 1.7 5.7 1.7.2.1.6.5.2 1.1-.1.2-.3.4-.4.6-.3.5-.6.6-1.2.3-.2-.1-2.3-1.5-4.4-1.5-3.5 0-4.6 2.3-4.6 3.7 0 2.2 1.7 3.5 4.5 4.7 4.5 1.8 7.4 3.5 7.4 7.4 0 3.5-3.3 6-7.2 6s-6.6-2.3-7-2.7c-.3-.1-.6-.4-.2-1"></path>
      <path d="m246 365.5c0-.3.3-.6.6-.6h13.2c.4 0 .6.3.6.6v1c0 .3-.3.6-.6.6h-11.2v8.2h9.6c.3 0 .6.3.6.6v1c0 .4-.3.6-.6.6h-9.6v8.5h11.2c.4 0 .6.3.6.6v1c0 .3-.3.6-.6.6h-13.2c-.4 0-.6-.3-.6-.6z"></path>
      <path d="m266.5 365.2c0-.3.3-.6.6-.6h.8l15.1 18.8h.1v-17.8c0-.3.3-.6.6-.6h1.2c.3 0 .6.3.6.6v22.4c0 .3-.3.6-.6.6h-.6l-15.3-19.1v18.2c0 .3-.3.6-.6.6h-1.2c-.3 0-.6-.3-.6-.6v-22.5z"></path>
      <path d="m296.3 367.1h-5.8c-.4 0-.6-.3-.6-.6v-1c0-.3.3-.6.6-.6h14.1c.4 0 .6.3.6.6v1c0 .3-.3.6-.6.6h-5.8v20.5c0 .3-.3.6-.6.6h-1.3c-.3 0-.6-.3-.6-.6z"></path>
      <path d="m309.6 365.5c0-.3.3-.6.6-.6h13.2c.4 0 .6.3.6.6v1c0 .3-.3.6-.6.6h-11.2v8.2h9.6c.3 0 .6.3.6.6v1c0 .4-.3.6-.6.6h-9.6v8.5h11.2c.4 0 .6.3.6.6v1c0 .3-.3.6-.6.6h-13.2c-.4 0-.6-.3-.6-.6z"></path>
      <path d="m339.2 376.9c2.6 0 4.8-2.1 4.8-4.9 0-2.5-2.2-4.7-4.8-4.7h-6.5v9.6zm-9.1-11.4c0-.3.3-.6.6-.6h8.6c4 0 7.3 3.1 7.3 7.1 0 3.1-2 5.6-4.9 6.8l4.6 8.5c.2.4 0 1-.6 1h-1.7c-.3 0-.5-.2-.5-.3l-4.4-8.8h-6.4v8.5c0 .3-.3.6-.6.6h-1.3c-.4 0-.6-.3-.6-.6v-22.2z"></path>
      <path d="m360.6 377.3c2.7 0 5.1-2.2 5.1-5.1 0-2.7-2.3-4.8-5.1-4.8h-5.3v9.9zm-7.8-11.8c0-.3.3-.6.6-.6h7.4c4.1 0 7.5 3.3 7.5 7.4s-3.4 7.5-7.4 7.5h-5.5v7.8c0 .3-.3.6-.6.6h-1.3c-.4 0-.6-.3-.6-.6v-22.1z"></path>
      <path d="m382.5 376.9c2.6 0 4.8-2.1 4.8-4.9 0-2.5-2.2-4.7-4.8-4.7h-6.5v9.6zm-9.1-11.4c0-.3.3-.6.6-.6h8.6c4 0 7.3 3.1 7.3 7.1 0 3.1-2 5.6-4.9 6.8l4.6 8.5c.2.4 0 1-.6 1h-1.7c-.3 0-.5-.2-.5-.3l-4.4-8.8h-6.4v8.5c0 .3-.3.6-.6.6h-1.4c-.4 0-.6-.3-.6-.6z"></path>
      <path d="m396.1 365.5c0-.3.3-.6.6-.6h1.3c.3 0 .6.3.6.6v22.1c0 .3-.3.6-.6.6h-1.3c-.3 0-.6-.3-.6-.6z"></path>
      <path d="m404.7 384.8c.2-.2.3-.4.5-.6.3-.4.7-.7 1.2-.3.2.2 2.7 2.5 5.6 2.5 2.7 0 4.5-1.7 4.5-3.7 0-2.3-2-3.7-5.8-5.3-3.7-1.6-5.9-3.1-5.9-6.9 0-2.3 1.8-6 7.1-6 3.3 0 5.7 1.7 5.7 1.7.2.1.6.5.2 1.1-.1.2-.3.4-.4.6-.3.5-.6.6-1.2.3-.2-.1-2.3-1.5-4.4-1.5-3.5 0-4.6 2.3-4.6 3.7 0 2.2 1.7 3.5 4.5 4.7 4.5 1.8 7.4 3.5 7.4 7.4 0 3.5-3.3 6-7.2 6s-6.6-2.3-7-2.7c-.3-.1-.6-.4-.2-1"></path>
      <path d="m424.7 365.5c0-.3.3-.6.6-.6h13.2c.4 0 .6.3.6.6v1c0 .3-.3.6-.6.6h-11.2v8.2h9.6c.3 0 .6.3.6.6v1c0 .4-.3.6-.6.6h-9.6v8.5h11.2c.4 0 .6.3.6.6v1c0 .3-.3.6-.6.6h-13.2c-.4 0-.6-.3-.6-.6z"></path>
      <path d="m388.1 278.9c1.5.5 3 1.4 4.5 2.6.1-.1.1-.1.2-.2.6-.6 1.1-1.4 1.5-2.1.5-.9 1-1.9 1.3-3 .1-.3.2-.7.3-1l.1-.6c.1-.4.1-.6.2-.9.2-1.4.2-2.9 0-4.4-.2-1.6-.5-3.2-1-5-.1-.2-.2-.5-.4-.8-.4-.7-1.1-1.3-2-1.5-.7-.2-1.3-.2-2 0-.9.3-1.6.8-2 1.6s-.5 1.7-.3 2.6c.1.3.2.6.3.9s.2.7.2 1c.1.3.1.5.1.7s.1.4.1.7c.2 1.4.2 2.6 0 3.7-.1.5-.2.9-.4 1.4-.1.4-.3.8-.5 1.1-.2.5-.5.9-.9 1.3-.3.3-.6.6-1 .9-.1.1-.2.1-.2.2.3.1.6.2.9.3z" fill="#f39800"></path>
      <path d="m379.6 274.5c2.3 0 4.2-1.9 4.2-4.2s-1.9-4.2-4.2-4.2-4.2 1.9-4.2 4.2 1.9 4.2 4.2 4.2" fill="#f39800"></path>
      <path d="m388.6 292c.2.4.5.9.6 1.4.1.4.2.9.3 1.3v.3c.2-.2.5-.4.7-.6l.9-.7c1.2-1 2.7-1.9 4.5-2.6 0-.1-.1-.2-.1-.3-.3-.8-.7-1.6-1.1-2.3-.5-.9-1.2-1.8-1.9-2.6-.2-.3-.5-.5-.8-.8l-.5-.4c-.3-.2-.5-.4-.7-.6-1.1-.8-2.4-1.6-3.8-2.2s-3-1.2-4.8-1.6c-.2 0-.5-.1-.7-.1-1 0-1.8.3-2.4.9-.5.5-.8 1-1 1.7-.2.9-.1 1.8.4 2.6s1.2 1.3 2.1 1.5c.3.1.6.2.9.2.3.1.7.2 1 .3.2.1.5.2.7.2.2.1.4.2.6.2 1.3.5 2.3 1.2 3.2 1.9.4.3.7.7 1 1 .5.6.7 1 .9 1.3" fill="#d70453"></path>
      <path d="m381.5 293.2c-.6-.4-1.4-.6-2.1-.6-1.5 0-2.9.8-3.6 2.1-.6 1-.7 2.1-.4 3.2s1 2 2 2.6c.6.4 1.4.6 2.1.6 1.5 0 2.9-.8 3.7-2.1.6-1 .7-2.1.4-3.2-.4-1.1-1.1-2.1-2.1-2.6" fill="#d70453"></path>
      <path d="m392 305.5c.9 0 1.8-.4 2.4-1.1.2-.2.4-.5.7-.7.2-.2.5-.5.7-.7s.4-.3.6-.5c.2-.1.3-.3.5-.4 1.1-.9 2.2-1.5 3.3-1.8.5-.2.9-.3 1.4-.4.9-.2 1.9-.1 2.8.1.4.1.9.2 1.3.4l.3.1c-.1-.3-.1-.6-.2-.9l-.2-1.1c-.3-1.6-.3-3.3 0-5.2-.1 0-.2 0-.3-.1-.8-.2-1.7-.2-2.5-.2-1.1 0-2.2.1-3.2.4-.3.1-.7.2-1 .3l-.6.2c-.4.1-.6.2-.9.3-1.3.5-2.6 1.3-3.8 2.2-1.3.9-2.6 2.1-3.8 3.4-.2.2-.3.4-.5.7-.4.8-.6 1.6-.4 2.5.2.7.5 1.2 1 1.7.6.6 1.5.9 2.3.9h.1z" fill="#601e86"></path>
      <path d="m402.3 306c-.7 0-1.5.2-2.1.6-2 1.2-2.7 3.8-1.5 5.8.7 1.3 2.1 2.1 3.6 2.1.7 0 1.5-.2 2.1-.6 2-1.2 2.7-3.7 1.5-5.7-.7-1.4-2.1-2.2-3.6-2.2" fill="#601e86"></path>
      <path d="m416.9 288.5c-1.5-.5-3-1.4-4.5-2.6 0 .1-.1.1-.2.2-.6.6-1 1.3-1.5 2.1-.5.9-1 1.9-1.3 3-.1.3-.2.7-.3 1.1l-.1.6c-.1.4-.1.6-.2.9-.2 1.4-.2 2.9 0 4.4.2 1.6.5 3.2 1 4.9.1.2.2.5.4.8.4.7 1.1 1.3 2 1.5.7.2 1.3.2 2 0 .9-.3 1.6-.8 2-1.6s.5-1.7.3-2.6c-.1-.3-.2-.6-.3-.9-.1-.4-.2-.7-.2-1-.1-.3-.1-.5-.1-.7s-.1-.4-.1-.6c-.2-1.4-.2-2.6.1-3.7.1-.5.2-.9.4-1.4.1-.4.3-.8.5-1.1.2-.4.6-.8.9-1.3.3-.3.6-.6 1-.9.1-.1.2-.1.2-.2-.3-.1-.6-.2-.9-.3z" fill="#e3007f"></path>
      <path d="m425.4 292.9c-2.3 0-4.2 1.9-4.2 4.2s1.9 4.2 4.2 4.2 4.2-1.9 4.2-4.2-1.9-4.2-4.2-4.2" fill="#e3007f"></path>
      <path d="m423.7 287.1c.9 0 1.7-.3 2.3-.9.5-.5.8-1 1-1.7.2-.9.1-1.8-.4-2.6s-1.2-1.3-2.1-1.6c-.3-.1-.6-.1-.9-.2s-.7-.2-1-.3c-.2-.1-.5-.2-.7-.2-.2-.1-.4-.2-.6-.3-1.3-.5-2.3-1.1-3.2-1.9-.4-.3-.7-.7-1-1s-.5-.7-.7-1c-.3-.5-.5-.9-.6-1.4-.1-.4-.2-.9-.3-1.3v-.3c-.3.2-.5.4-.7.6l-.8.7c-1.2 1-2.7 1.9-4.5 2.6 0 .1.1.2.1.3.3.8.6 1.6 1.1 2.3.5.9 1.2 1.8 1.9 2.6.3.3.5.5.8.8l.5.4c.3.2.5.4.7.6 1.1.8 2.4 1.6 3.8 2.2 1.5.7 3.1 1.2 4.8 1.6-.1-.1.2 0 .5 0z" fill="#036eb8"></path>
      <path d="m423.4 274.2c1.9 1.1 4.6.4 5.7-1.5 1.2-2 .5-4.6-1.5-5.7-.6-.4-1.4-.6-2.1-.6-1.5 0-2.9.8-3.7 2.1-.6 1-.7 2.1-.4 3.2.4 1 1.1 1.9 2 2.5" fill="#036eb8"></path>
      <path d="m399.4 268.8c.3 1.6.3 3.3 0 5.2.1 0 .2 0 .3.1 1.9.3 3.9.3 5.8-.1.3-.1.7-.2 1-.3l1.5-.5c1.3-.6 2.6-1.3 3.8-2.2 1.3-.9 2.5-2 3.8-3.4.2-.2.3-.4.5-.7.4-.7.5-1.6.4-2.5-.2-.7-.5-1.2-1-1.7-.6-.6-1.5-.9-2.3-.9-1 0-1.9.4-2.5 1.1-.2.2-.4.5-.7.7-.3.3-.5.5-.8.7-.2.2-.4.3-.6.5-.2.1-.3.3-.5.4-1.1.8-2.2 1.4-3.2 1.8-.5.2-.9.3-1.4.4-.9.2-1.8.1-2.8-.1-.4-.1-.9-.2-1.3-.4l-.3-.1c.1.3.1.7.2 1z" fill="#dae000"></path>
      <path d="m404.7 260.8c2-1.2 2.7-3.7 1.5-5.7-.8-1.3-2.2-2.1-3.7-2.1-.7 0-1.5.2-2.1.6-1 .6-1.7 1.5-2 2.6s-.1 2.2.4 3.2c1.3 1.8 4 2.5 5.9 1.4" fill="#dae000"></path>
    </g>
  </g>
</svg>
