<?xml version="1.0" encoding="UTF-8"?>
<svg xmlns="http://www.w3.org/2000/svg" width="33" height="48" viewBox="0 0 33 48" fill="none">
  <g clip-path="url(#clip0_72_73)">
    <path d="M9.00562 42.5951C9.00656 43.1848 9.18094 43.7623 9.50812 44.2536L11.1103 46.662C11.384 47.0737 11.7552 47.4114 12.191 47.645C12.6267 47.8785 13.1134 48.0008 13.6078 48.0008H19.3931C19.8875 48.0008 20.3742 47.8785 20.81 47.645C21.2457 47.4114 21.6169 47.0737 21.8906 46.662L23.4928 44.2536C23.8199 43.7623 23.9947 43.1854 23.9953 42.5951L23.9991 38.9998H9.00094L9.00562 42.5951ZM0 16.4998C0 20.6595 1.54219 24.4545 4.08375 27.3542C5.6325 29.1214 8.055 32.8133 8.97844 35.9276C8.98219 35.952 8.985 35.9764 8.98875 36.0008H24.0112C24.015 35.9764 24.0178 35.953 24.0216 35.9276C24.945 32.8133 27.3675 29.1214 28.9163 27.3542C31.4578 24.4545 33 20.6595 33 16.4998C33 7.36952 25.5853 -0.0282892 16.4484 -0.000164211C6.885 0.0288983 0 7.77827 0 16.4998ZM16.5 8.99984C12.3647 8.99984 9 12.3645 9 16.4998C9 17.3286 8.32875 17.9998 7.5 17.9998C6.67125 17.9998 6 17.3286 6 16.4998C6 10.7098 10.71 5.99984 16.5 5.99984C17.3288 5.99984 18 6.67109 18 7.49984C18 8.32859 17.3288 8.99984 16.5 8.99984Z" fill="white"></path>
  </g>
  <defs>
    <clipPath id="clip0_72_73">
      <rect width="33" height="48" fill="white"></rect>
    </clipPath>
  </defs>
</svg>
