<?xml version="1.0" standalone="no"?>
<!DOCTYPE svg PUBLIC "-//W3C//DTD SVG 1.1//EN" "http://www.w3.org/Graphics/SVG/1.1/DTD/svg11.dtd" >
<svg xmlns="http://www.w3.org/2000/svg">
<metadata>Generated by IcoMoon</metadata>
<defs>
<font id="Numbro" horiz-adv-x="1024">
<font-face units-per-em="1024" ascent="960" descent="-64" />
<missing-glyph horiz-adv-x="1024" />
<glyph unicode="&#x20;" horiz-adv-x="512" d="" />
<glyph unicode="&#xe900;" glyph-name="zero" d="M512 591.114c-52.546 0-81.6-51.226-81.6-143.116s29.048-143.11 81.6-143.11 81.588 50.79 81.588 142.682-29.478 143.544-81.588 143.544zM512 948c-276.142 0-500-223.858-500-500s223.858-500 500-500 500 223.858 500 500-223.858 500-500 500zM512 186.062c-132.572 0-218.32 102.618-218.32 261.938 0 159.75 85.314 261.94 218.318 261.94s218.322-102.192 218.322-261.94c0-159.32-85.758-261.938-218.32-261.938z" />
<glyph unicode="&#xe901;" glyph-name="number-one" d="M512 948c-276.142 0-500-223.858-500-500s223.858-500 500-500 500 223.858 500 500-223.858 500-500 500zM616.15 198.622h-134.364v385.73h-73.936v113.026h208.3z" />
<glyph unicode="&#xe902;" glyph-name="exclamation-mark" d="M512 948c-276.142 0-500-223.858-500-500s223.858-500 500-500 500 223.858 500 500-223.858 500-500 500zM447.23 717h130.17v-365.26h-130.17zM579.658 177h-135.316v129.6h135.316z" />
<glyph unicode="&#xe903;" glyph-name="question-mark" d="M512-52c276.142 0 500 223.858 500 500s-223.858 500-500 500-500-223.858-500-500 223.858-500 500-500zM573.024 170.496h-135.316v129.6h135.316zM512.116 725.496c106.546 0 186.866-65.41 186.866-167.688 0-71.138-39.73-101.866-75.068-129.384-28.074-21.638-52.826-40.71-52.826-76.4v-14.272h-130.38v14.272c0 85.224 42.2 115.748 77.25 141.136 25.088 17.8 46.112 33.022 46.112 63.384 0 31.89-23.956 51.96-52.388 51.96-28.748 0-55.614-19.2-55.614-54.436h-131.050c0 112.004 84.708 171.436 187.098 171.436z" />
<glyph unicode="&#xe904;" glyph-name="Hash-key" d="M472.792 388.204h60.916l16.008 119.592h-60.916zM512 948c-276.142 0-500-223.858-500-500s223.858-500 500-500 500 223.858 500 500-223.858 500-500 500zM713.25 507.8h-76.95l-16-119.6h70.458v-85.816h-81.958l-21.75-162.504h-86.578l21.75 162.504h-60.916l-21.752-162.504h-86.582l21.75 162.504h-63.972v85.816h75.45l16 119.6h-68.95v85.814h80.452l21.752 162.502h86.582l-21.752-162.502h60.916l21.75 162.502h86.582l-21.75-162.502h65.464z" />
<glyph unicode="&#xe905;" glyph-name="dollar-symbol" d="M512 948c-276.142 0-500-223.858-500-500s223.858-500 500-500 500 223.858 500 500-223.858 500-500 500zM569.816 192.46v-52.576h-112.088v52.268c-91.388 16.666-148 76.786-148 167.8h143.432c0-33.954 27.75-50.912 58.8-50.912 29.118 0 56.866 14.82 56.866 40.704 0 31.432-38.934 40.544-86.666 52.342-72.884 18.112-165.684 40.614-165.684 155 0 81.45 50.484 134.298 136.212 149.628v49.4h112.088v-49.914c85.2-16.62 133.23-72.766 133.23-156.34l-139.274-0.314c0 29.452-23.568 43.838-52.366 43.838-25.020 0-48.908-10.298-48.908-32 0-28.756 37.754-38.182 85.568-50.304 74.272-19.176 171.258-43.5 171.258-158.566-0.006-89.838-58.020-144.034-144.468-160.054z" />
<glyph unicode="&#xe906;" glyph-name="dot" d="M512 948c-276.142 0-500-223.858-500-500s223.858-500 500-500 500 223.858 500 500-223.858 500-500 500zM579.662 383.2h-135.324v129.6h135.324z" />
<glyph unicode="&#xe907;" glyph-name="plus" d="M512 948c-276.142 0-500-223.858-500-500s223.858-500 500-500 500 223.858 500 500-223.858 500-500 500zM693.854 390.4h-118.958v-127.524h-125.8v127.524h-118.95v117.988h118.95v124.726h125.8v-124.726h118.958z" />
<glyph unicode="&#xe908;" glyph-name="minus" d="M512 938.054c-276.142 0-500-223.856-500-500s223.858-500 500-500 500 223.858 500 500-223.858 500-500 500zM649.32 374.69h-274.64v126.728h274.64z" />
<glyph unicode="&#xe909;" glyph-name="asterisk" d="M512 938.054c-276.142 0-500-223.856-500-500s223.858-500 500-500 500 223.858 500 500-223.858 500-500 500zM633.904 365.724l-72.19-60.818-49.694 59.744-49.42-59.744-72.18 60.818 42.85 50.22-61.4 21.916 31.278 88.14 62.162-22.574v67.774h93.382v-67.854l62.16 22.654 31.276-88.14-61.964-21.81z" />
<glyph unicode="&#xe90a;" glyph-name="slash" d="M512 938.054c-276.142 0-500-223.856-500-500s223.858-500 500-500 500 223.856 500 500-223.858 500-500 500zM390.874 129.054h-131.252l373.504 618h131.252z" />
<glyph unicode="&#xe90b;" glyph-name="equal" d="M512 938.054c-276.142 0-500-223.856-500-500s223.858-500 500-500 500 223.858 500 500-223.858 500-500 500zM687.836 298.054h-351.672v113.728h351.672zM687.836 464.33h-351.672v113.728h351.672z" />
<glyph unicode="&#xe90c;" glyph-name="acute" d="M512 948c-276.142 0-500-223.858-500-500s223.858-500 500-500 500 223.858 500 500-223.858 500-500 500zM541.122 510l-177.456 208h170.122l126.546-208z" />
<glyph unicode="&#xe90d;" glyph-name="degree" d="M512 948c-276.142 0-500-223.858-500-500s223.858-500 500-500 500 223.858 500 500-223.858 500-500 500zM512 456.668c-79.964 0-137.508 54.902-137.508 130.67-0.002 76.026 57.542 130.662 137.508 130.662 79.708 0 137.512-54.64 137.512-130.666-0.002-75.764-57.806-130.666-137.512-130.666zM512 642.108c-30.8 0-52.894-22.35-52.894-54.774s22.094-54.776 52.894-54.776c30.8 0 52.898 22.35 52.898 54.776-0.002 32.228-22.098 54.774-52.898 54.774z" />
<glyph unicode="&#xe90e;" glyph-name="at-sign" d="M504.4 510.648c-38.384 0-66.368-28.296-66.368-66.57s27.968-66.564 66.368-66.564 66.362 27.864 66.362 66.564-27.988 66.57-66.362 66.57zM512 948c-276.142 0-500-223.858-500-500s223.858-500 500-500 500 223.858 500 500-223.858 500-500 500zM711.642 272.714c-46.914 0-84.526 17.522-105.488 48.468-28.218-30.22-67.692-48.2-112.878-48.2-98.98 0-169.276 71.048-169.276 170.664s70.296 170.23 169.276 170.23c42.6 0 80.094-15.878 107.888-42.908l12.172 19.904h58.264v-170.138c0-30.4 17.91-47.868 41.768-47.868 28.152 0.004 52.632 26.134 52.632 80.85 0 129.954-102.1 223.704-248.98 223.704-149.12 0-257.756-98.25-257.756-233.342 0-131.98 98.024-225.708 235.916-225.708 0.563-0.004 1.23-0.006 1.896-0.006 41.234 0 80.507 8.396 116.203 23.571l-1.945-0.735v-96.58c-45.654-16.498-88.38-24.636-131.344-24.636-185.744 0-324.024 136.344-324.024 324.094 0 209.53 165.934 331.938 358.166 331.938h0.010c191.6 0 353.892-119.956 353.892-322.3 0-118.316-73.458-181.002-156.392-181.002z" />
<glyph unicode="&#xe90f;" glyph-name="number-2" d="M512 948c-276.142 0-500-223.858-500-500s223.858-500 500-500 500 223.858 500 500-223.858 500-500 500zM697.476 192.258h-370.952v30.36c200.676 236.688 228.316 274.938 228.316 317.758 0 27.044-17.818 45.18-43.364 45.18-28 0-45.070-18.884-45.070-48.908v-9.648h-131.844v9.226c0 100.846 66.1 167.506 175.302 167.506 105.8 0 178.846-65.048 178.846-158.686 0-62.762-23.22-110.942-129.894-234.508h138.66z" />
<glyph unicode="&#xe910;" glyph-name="number-3" d="M512 948c-276.142 0-500-223.858-500-500s223.858-500 500-500 500 223.858 500 500-223.858 500-500 500zM509.91 192.846c-107.182 0-180.864 69.962-183.862 173.2h128.018c1.498-35.16 23.364-58.524 56.162-58.524 34.092 0 58 25.096 58 61.546s-24.776 59.072-63.59 59.072h-79.89v27.8l81.216 133.526h-167.4v113.688h342.236v-22.914l-100.104-160.254c71.508-17.94 117.256-75.826 117.256-153.070 0-101.432-78.608-174.070-188.042-174.070z" />
<glyph unicode="&#xe911;" glyph-name="percent" d="M374.26 579.2c0 61.958-20.566 96.8-56.928 96.8-36.666 0-56.936-34.542-56.936-96.506s20.27-96.5 56.936-96.5 56.928 34.238 56.928 96.206zM512 948c-276.142 0-500-223.858-500-500s223.858-500 500-500 500 223.858 500 500-223.858 500-500 500zM165 579.484c0 107.724 59.53 176.632 152.338 176.632s152.338-68.908 152.338-176.632c0-107.43-59.84-176.626-152.338-176.626s-152.338 69.196-152.338 176.626zM390.966 139.884h-108.222l350.298 616.232h108.216zM706.674 139.884c-92.504 0-152.336 69.2-152.336 176.628 0 107.722 59.528 176.63 152.336 176.63s152.326-68.908 152.326-176.63c0-107.43-59.832-176.628-152.332-176.628zM706.668 413.018c-36.666 0-56.934-34.544-56.934-96.506s20.266-96.512 56.934-96.512 56.932 34.258 56.932 96.224-20.57 96.794-56.932 96.794z" />
<glyph unicode="&#xe912;" glyph-name="caret" d="M512 948c-276.142 0-500-223.858-500-500s223.858-500 500-500 500 223.858 500 500-223.858 500-500 500zM644.564 300.528l-132.564 268.418-132.564-268.418h-123.636l209.8 424.8h92.8l209.8-424.8z" />
<glyph unicode="&#xe913;" glyph-name="ampersand" d="M399.020 329.854c0-29.182 22.112-48.704 55.818-48.704 20.609 0.094 40.023 5.118 57.152 13.951l-0.706-0.331c-31.622 35.536-58.26 66.33-80.694 93.254-19.14-16.748-31.57-35.272-31.57-58.17zM473.678 627.42c-22.658 0-39.384-14.062-39.384-37.972 0-15.098 8.452-34.884 25.336-60.94 30.88 18.414 53.122 36.722 53.122 60.94 0 23.588-17.046 37.972-39.074 37.972zM512 948c-276.142 0-500-223.858-500-500s223.858-500 500-500 500 223.858 500 500-223.858 500-500 500zM613.366 182.216q-13.096 14.22-25.446 27.72c-41.16-25.134-90.242-39.272-144-39.272-100.916 0-170.846 62.866-170.846 155.118 0 71.072 42.182 114.864 91.068 147.6-41.020 58.47-49.6 89.25-49.6 119.678 0 85.4 70.61 132.274 159.136 132.274 87.456 0 157.96-47.822 157.96-131.96 0-71.6-54.092-112.53-110.2-146.542 18.2-22.096 39.238-46.778 63.12-74.356 8.508 17.896 14.29 38.706 16.183 60.627l0.047 0.679h113.752c-2.498-58.186-20.6-110.274-50.378-152.448q39.938-45.528 86.764-99.12z" />
<glyph unicode="&#xe914;" glyph-name="underline" d="M512 952.8c-276.142 0-500-223.85-500-500s223.858-500 500-500 500 223.856 500 500-223.858 500-500 500zM704.142 347h-384.284v126.728h384.284z" />
<glyph unicode="&#xe915;" glyph-name="slash1" d="M512 952.8c-276.142 0-500-223.85-500-500s223.858-500 500-500 500 223.856 500 500-223.858 500-500 500zM633.126 143.8l-373.504 618h131.252l373.504-618z" />
<glyph unicode="&#xe916;" glyph-name="bar" d="M512 952.8c-276.142 0-500-223.85-500-500s223.858-500 500-500 500 223.856 500 500-223.858 500-500 500zM554.908 143.8h-85.816v618h85.816z" />
<glyph unicode="&#xe917;" glyph-name="Comma" d="M512 948c-276.142 0-500-223.858-500-500s223.858-500 500-500 500 223.858 500 500-223.858 500-500 500zM580.094 459.8c0-81.6-53-135.226-130.504-142.178v69.092c40.322 3.546 59.478 30.044 59.478 62.070h-65.162v129.6h136.188z" />
<glyph unicode="&#xe918;" glyph-name="semicolon" d="M512 948c-276.142 0-500-223.858-500-500s223.858-500 500-500 500 223.858 500 500-223.858 500-500 500zM580.094 324.254c0-81.6-53-135.226-130.504-142.178v69.092c40.322 3.546 59.478 30.044 59.478 62.070h-65.162v129.6h136.188zM580.094 584.328h-135.326v129.6h135.326z" />
<glyph unicode="&#xe919;" glyph-name="colon" d="M512 948c-276.142 0-500-223.858-500-500s223.858-500 500-500 500 223.858 500 500-223.858 500-500 500zM579.662 247.874h-135.324v129.6h135.324zM579.662 518.538h-135.324v129.586h135.324z" />
<glyph unicode="&#xe91a;" glyph-name="right-quote" d="M512 948c-276.142 0-500-223.858-500-500s223.858-500 500-500 500 223.858 500 500-223.858 500-500 500zM580.090 593.892c0-81.61-53-135.228-130.502-142.18v69.088c40.322 3.548 59.484 30.048 59.484 62.072h-65.162v129.6h136.18z" />
<glyph unicode="&#xe91b;" glyph-name="left-quote" d="M512 948c-276.142 0-500-223.858-500-500s223.858-500 500-500 500 223.858 500 500-223.858 500-500 500zM580.092 451.714h-136.184v118.57c0 81.614 53 135.232 130.5 142.184v-69.090c-40.312-3.546-59.474-30.046-59.474-62.070h65.158z" />
<glyph unicode="&#xe91c;" glyph-name="left-quotes" d="M512 948c-276.142 0-500-223.858-500-500s223.858-500 500-500 500 223.858 500 500-223.858 500-500 500zM488.386 451.714h-136.186v118.57c0 81.614 53 135.232 130.5 142.184v-69.090c-40.312-3.546-59.474-30.046-59.474-62.070h65.16zM671.8 451.714h-136.186v118.57c0 81.614 53 135.232 130.502 142.184v-69.090c-40.322-3.546-59.478-30.046-59.478-62.070h65.162z" />
<glyph unicode="&#xe91d;" glyph-name="right-quotes" d="M512 948c-276.142 0-500-223.858-500-500s223.858-500 500-500 500 223.858 500 500-223.858 500-500 500zM488.38 593.892c0-81.61-53-135.228-130.5-142.18v69.088c40.32 3.548 59.484 30.048 59.484 62.072h-65.164v129.6h136.18zM671.796 593.892c0-81.61-53-135.228-130.5-142.18v69.088c40.32 3.548 59.474 30.048 59.474 62.072h-65.16v129.6h136.19z" />
<glyph unicode="&#xe91e;" glyph-name="number-four" d="M512 948c-276.142 0-500-223.858-500-500s223.858-500 500-500 500 223.858 500 500-223.858 500-500 500zM673.262 288.234v-89.612h-128.162v89.612h-239.432v24.4l159.774 384.752h132.46l-123.534-297.4h79.77l29.262 109.846h89.866v-109.848h45.068v-111.75z" />
<glyph unicode="&#xe91f;" glyph-name="number-5" d="M512 948c-276.142 0-500-223.858-500-500s223.858-500 500-500 500 223.858 500 500-223.858 500-500 500zM511.418 192.842c-108.684 0-185.272 71.566-185.272 172.774h127.926c0-33.864 23.8-58.090 57.346-58.090 32.8 0 56.71 25.096 56.71 58.87 0 35.82-25.098 60.276-61.668 60.276h-155.228l-12.728 16.478 27.86 260h295.71v-113.688h-192.828l-6.284-56.91 46.4-0.016c111.684 0 188.476-68.362 188.476-166.158 0.016-101.31-77.638-173.536-186.42-173.536z" />
<glyph unicode="&#xe920;" glyph-name="six" d="M512 948c-276.142 0-500-223.858-500-500s223.858-500 500-500 500 223.858 500 500-223.858 500-500 500zM512.432 192.846c-117.706 0-198.57 75.212-198.57 184.052 0 51.136 15.268 101.748 57.046 171.708l91.68 154.548h144.048c-32.836-55.036-66.032-109.8-98.936-164.8 9.739 1.542 20.97 2.423 32.406 2.423 0.209 0 0.418 0 0.626-0.001h-0.032c99.818 0 169.436-66.842 169.436-163.248 0.002-109.358-80.656-184.682-197.704-184.682zM512 448.4c-40.4 0-69.684-28.726-69.684-70.862 0-41.706 29.274-70.118 69.684-70.118 40.84 0 69.682 28.412 69.682 70.118-0.002 42.134-28.844 70.862-69.682 70.862z" />
<glyph unicode="&#xe921;" glyph-name="open-bracket" d="M512 948c-276.142 0-500-223.858-500-500s223.858-500 500-500 500 223.858 500 500-223.858 500-500 500zM639.252 87.452h-147.252c-67.5 97.8-108.752 222.484-108.752 359.8 0.002 138.072 41.254 262.748 108.752 361.296h148.748c-54.748-70.148-122.248-204.91-122.248-361.294 0-155.642 65.252-290.388 120.752-359.802z" />
<glyph unicode="&#xe922;" glyph-name="close-bracket" d="M512 948c-276.142 0-500-223.858-500-500s223.858-500 500-500 500 223.858 500 500-223.858 500-500 500zM532 87.452h-147.252c55.504 69.414 120.752 204.16 120.752 359.8 0 156.384-67.5 291.14-122.25 361.294h148.75c67.5-98.546 108.75-223.222 108.75-361.292 0-137.318-41.25-262.008-108.75-359.802z" />
<glyph unicode="&#xe923;" glyph-name="open-bracket1" d="M512 948c-276.142 0-500-223.858-500-500s223.858-500 500-500 500 223.858 500 500-223.858 500-500 500zM633.088 699.436h-55.678v-155.552c0-44.4-24.024-82-61.328-96.428 36.472-14.4 59.828-51.526 59.828-96.324v-153.82h57.178v-110.61h-87.158c-0.043 0-0.093 0-0.144 0-54.182 0-98.106 43.924-98.106 98.106 0 0.051 0 0.103 0 0.154v-0.008 172.928c0 0.001 0 0.003 0 0.005 0 22.369-18.133 40.502-40.502 40.502-0.263 0-0.525-0.003-0.787-0.007l0.039 0.001h-15.518v97.502h15.518c0.175-0.003 0.381-0.004 0.588-0.004 22.459 0 40.666 18.207 40.666 40.666 0 0.208-0.002 0.415-0.005 0.621v-0.031 174.664c0 54 44.25 97.502 98.25 97.502h87.158z" />
<glyph unicode="&#xe924;" glyph-name="close-bracket1" d="M512 948c-276.142 0-500-223.858-500-500s223.858-500 500-500 500 223.858 500 500-223.858 500-500 500zM633.092 398.382h-15.522c-0.223 0.004-0.486 0.007-0.75 0.007-22.369 0-40.502-18.133-40.502-40.502 0-0.002 0-0.003 0-0.005v0-172.928c0-0.043 0-0.093 0-0.144 0-54.184-43.924-98.108-98.108-98.108-0.051 0-0.101 0-0.152 0h-87.15v110.61h57.18v153.82c0 44.8 23.356 81.924 59.828 96.324-37.306 14.438-61.328 52.020-61.328 96.428v155.552h-55.68v109.862h87.158c54 0 98.252-43.5 98.252-97.502v-174.66c-0.003-0.176-0.004-0.383-0.004-0.59 0-22.459 18.207-40.666 40.666-40.666 0.208 0 0.415 0.002 0.622 0.005h15.491z" />
<glyph unicode="&#xe925;" glyph-name="open-bracket2" d="M512 948c-276.142 0-500-223.858-500-500s223.858-500 500-500 500 223.858 500 500-223.858 500-500 500zM610.050 84.152h-196.1v727.696h194.6v-106.118h-72.774v-513.958h74.274z" />
<glyph unicode="&#xe926;" glyph-name="close-bracket2" d="M512 948c-276.142 0-500-223.858-500-500s223.858-500 500-500 500 223.858 500 500-223.858 500-500 500zM610.048 84.152h-196.096v107.62h74.274v513.958h-72.772v106.118h194.6z" />
<glyph unicode="&#xe927;" glyph-name="similar" d="M512 948c-276.142 0-500-223.858-500-500s223.858-500 500-500 500 223.858 500 500-223.858 500-500 500zM769.082 383.85c-26.868-27.52-63.030-42.066-104.578-42.066-58.362 0-110.024 22.376-176.638 53.988-35.4 18.386-81.078 44.694-122.8 44.694-17.6 0-24.626-7.118-26.936-9.458-11.272-11.41-17.514-35.48-17.134-66.036l-113.74-1.422c-0.99 79.022 26.612 123.768 49.938 147.388 27.962 28.312 65.264 43.278 107.872 43.278 59.964 0 119.826-28.4 171.562-55.678 61.4-29.138 96.2-43 127.872-43 13.976 0 19.928 4.44 23.188 7.78 10.45 10.704 16 34.942 15.256 66.5l113.716 2.726c1.556-64.744-14.46-114.768-47.578-148.694z" />
<glyph unicode="&#xe928;" glyph-name="less-than-symbol" d="M512 948c-276.142 0-500-223.858-500-500s223.858-500 500-500 500 223.858 500 500-223.858 500-500 500zM724.838 584.842l-268.966-136.842 268.966-136.842v-127.626l-425.676 216.572v95.8l425.676 216.564z" />
<glyph unicode="&#xe929;" glyph-name="greater-than-symbol" d="M512 948c-276.142 0-500-223.858-500-500s223.858-500 500-500 500 223.858 500 500-223.858 500-500 500zM724.838 400.104l-425.676-216.572v127.626l268.966 136.842-268.966 136.842v127.626l425.676-216.572z" />
<glyph unicode="&#xe92a;" glyph-name="section" d="M488.566 492.852q-2.568 0.832-5.13 1.678c-17.874-7.372-29.086-21.164-28.574-39.428 0.636-26 32.752-37.89 77.34-48.526 3.076-0.914 6.278-1.904 9.562-2.954 16.47 7.080 27.938 19.304 27.376 37.68-0.64 28.688-33.84 40.478-80.574 51.55zM512 948c-276.142 0-500-223.858-500-500s223.858-500 500-500 500 223.858 500 500-223.858 500-500 500zM669.574 278.8c0-80.89-60.638-126.182-156.26-126.182-98.428 0-160.59 51.772-160.59 134.154h115c0-24.6 22.388-36.428 46.028-36.428 20.4 0 38.050 9.338 38.050 26.632 0 24.144-32.4 32.4-71.96 42.256-62.4 15-142.868 35.138-142.868 129.518 0 43.4 17.6 73.69 46.508 96.176-19.11 18.832-29.054 41.932-29.054 71.4 0 81.316 60.2 127.044 155.4 127.044 97.568 0 159.294-52.2 159.294-135.024h-115c0 24.616-21.524 36.436-44.73 36.436-19.98 0-37.184-9.346-37.184-26.642 0-24.134 32.82-32.818 72.39-42.682 62.386-15.428 142.434-35.566 142.434-129.092 0-38.296-15.46-70.53-45.218-95.558 18.248-19.254 27.76-42.708 27.76-72.008z" />
<glyph unicode="&#xe92b;" glyph-name="euro-symbol" d="M512 948c-276.142 0-500-223.858-500-500s223.858-500 500-500 500 223.858 500 500-223.858 500-500 500zM699.236 547.946l-21.752-84.546h-189.428q-0.664-7.876-0.666-16.088c0-0.080 0-0.175 0-0.27 0-7.383 0.387-14.675 1.14-21.858l-0.076 0.897h179.6l-21.754-84.552-122.666 0.188c25.908-28.62 64.43-44.414 111.432-44.414 0.439-0.003 0.958-0.005 1.478-0.005 26.307 0 51.518 4.694 74.841 13.289l-1.5-0.484v-113.89c-24.873-8.049-53.491-12.689-83.193-12.689-0.682 0-1.363 0.002-2.044 0.007l0.105-0.001c-114.188 0-204.474 61.292-242.724 156.728h-95.708l21.636 85.818h54.916q-0.71 10.462-0.712 21.232 0 8.134 0.42 16.088h-75.18l21.638 86.138h71.468c38.176 99.498 132.030 162.932 244.066 162.932 40.73-0.203 79.578-8.008 115.28-22.067l-2.164 0.751-27.816-107.888c-20.452 8.362-51.27 13.838-76.702 13.838-46.84 0-86.17-18.022-112.13-49.156z" />
<glyph unicode="&#xe92c;" glyph-name="pound-symbol" d="M512 948c-276.142 0-500-223.858-500-500s223.858-500 500-500 500 223.858 500 500-223.858 500-500 500zM713.412 191.496h-402.824v80.252l45 20.31v94.2h-35.976v95.44h35.976v71.2c0 91.904 68.98 151.6 174.234 151.6 102.364 0 166.182-58.388 166.182-151.6v-11.162h-120.386v8.866c0 30.676-18.12 49.456-45.8 49.456-28 0-46.552-18.78-46.552-49.456v-68.91h90.054v-95.44h-90.050v-88.448h115.6v50.796h114.542z" />
<glyph unicode="&#xe92d;" glyph-name="currency-symbol" d="M512 948c-276.142 0-500-223.858-500-500s223.858-500 500-500 500 223.858 500 500-223.858 500-500 500zM570.424 247.966v-55.15h-112.090v55.374c-92.566 22.028-155.074 97.778-155.074 196.172 0 98.988 62.154 174.2 155.074 196.090v62.732h112.090v-62.384c79.8-18.756 136.626-79.066 148.814-162.504h-130c-11.296 30.248-40.568 49.75-73.816 49.75-45.8 0-78.322-34.448-78.322-84.114 0-48.908 32.956-84.114 78.322-84.114 34.636 0 63.048 21.324 74.138 53.82h131.18c-12.352-84.904-69.97-146.48-150.316-165.672z" />
<glyph unicode="&#xe92e;" glyph-name="yen-symbol" d="M512 948c-276.142 0-500-223.858-500-500s223.858-500 500-500 500 223.858 500 500-223.858 500-500 500zM696.296 425.238v-73.3h-118.276v-33.314h118.276v-68.824h-118.276v-51.18h-132.476v51.18h-118.278v68.824h118.278v33.314h-118.278v73.3h110.39l-168.342 272.14h142.8l99.348-179.312 100.432 179.312h142.8l-170-272.14z" />
<glyph unicode="&#xe92f;" glyph-name="ruble" d="M544.78 591.354h-55.97v-92.020h55.97c29.026 0 49.278 18.75 49.278 45.63 0 27.21-20.258 46.39-49.278 46.39zM512 948c-276.142 0-500-223.858-500-500s223.858-500 500-500 500 223.858 500 500-223.858 500-500 500zM558.058 392.666h-69.248v-36.866h113.544v-84.090h-113.544v-73.726h-128.342v73.73h-57.256v84.086h57.256v41.69h-57.256v95.432h57.256v205.090h197.59c100.298 0 162.73-58.816 162.73-152.724 0-93.488-62.432-152.622-162.73-152.622z" />
<glyph unicode="&#xe930;" glyph-name="seven" d="M512 948c-276.142 0-500-223.858-500-500s223.858-500 500-500 500 223.858 500 500-223.858 500-500 500zM703.514 677.924l-189-479.302h-140.688l152.462 381.89h-205.8v116.866h383.026z" />
<glyph unicode="&#xe931;" glyph-name="number-8" d="M512.218 510.63c33.772 0 56.732 21.022 56.732 49.868s-22.96 49.86-56.732 49.86-57.158-21.022-57.158-49.86 23.386-49.868 57.158-49.868zM512.218 408.86c-40.32 0-67.028-24.346-67.028-59.302s26.708-59.298 67.028-59.298 66.6 24.338 66.6 59.298-26.28 59.302-66.6 59.302zM512 948c-276.142 0-500-223.858-500-500s223.858-500 500-500 500 223.858 500 500-223.858 500-500 500zM511.782 186.49c-117.57 0-197.050 64.088-197.050 158.904 0 50.122 21.468 88.44 66.2 116.822-34.824 28.252-52.486 62.4-52.486 102.33 0 85.914 73.906 144.964 183.776 144.964s183.34-58.614 183.34-144.954c0-40.39-17.74-74.656-52.706-102.422 44.588-28.664 66.412-66.952 66.412-116.738 0-94.382-79.914-158.906-197.486-158.906z" />
<glyph unicode="&#xe932;" glyph-name="number-9" d="M512 948c-276.142 0-500-223.858-500-500s223.858-500 500-500 500 223.858 500 500-223.858 500-500 500zM653.092 347.982l-92.114-155.724h-144.050c32.838 54.902 66.4 110.882 99.356 165.97-9.738-1.543-20.967-2.425-32.402-2.425-0.206 0-0.411 0-0.617 0.001h0.032c-99.818 0-169.436 66.842-169.436 163.248 0 109.366 80.658 184.69 197.704 184.69 117.708 0 198.572-75.21 198.572-184.052 0-51.136-15.592-101.746-57.046-171.708zM512 590.034c-43 0-73.142-28.838-73.142-70.982 0-42.564 30.144-71.724 73.142-71.724 42.568 0 73.14 29.16 73.14 71.724 0.002 42.148-30.57 70.982-73.14 70.982z" />
</font>
</defs>
</svg>
